# xmcd CD database file
#
# Track frame offsets:
#	150
#	33601
#	67363
#	86868
#	122983
#	166202
#	187503
#	213414
#	224042
#	250843
#	282421
#	302005
#
# Disc length: 4444 seconds
#
# Revision: 0
# Processed by: cddbd v1.5.2PL0 Copyright (c) Steve Scherf et al.
# Submitted via: CDex 1.51
#
DISCID=bb115a0c
DTITLE=John Coltrane - BAGS and TRANE and GIANTS STEPS
DYEAR=1900
DGENRE=Jazz
TTITLE0=BAGS and TRANE
TTITLE1=THREE LIITTLE WORDS
TTITLE2=THE NIGHT WE CALLED IT A DAY
TTITLE3=BE-BOP
TTITLE4=THE LATE LATE BLUES
TTITLE5=GIANT STEPS
TTITLE6=COUSIN MARY
TTITLE7=COUNTDOWN
TTITLE8=SPIRAL
TTITLE9=SYEEDA´S SONG FLUTE
TTITLE10=NAIMA
TTITLE11=MR: P:C:
EXTD=
EXTT0=
EXTT1=
EXTT2=
EXTT3=
EXTT4=
EXTT5=
EXTT6=
EXTT7=
EXTT8=
EXTT9=
EXTT10=
EXTT11=
PLAYORDER=
